# xmcd
#
# Track frame offsets: 
#        150
#        11090
#        23277
#        53690
#        67302
#        78372
#        96217
#        109470
#        120452
#        130665
#
# Disc length: 1924 seconds
#
# Revision: 1
# Processed by: cddbd v1.5.2PL0 Copyright (c) Steve Scherf et al.
# Submitted via: ExactAudioCopy v1.1
#
DISCID=7b07820a
DTITLE=Little Milton - Grits Ain't Groceries
DYEAR=1969
DGENRE=Blues
TTITLE0=Just A Little Bit (stereo)
TTITLE1=Grits Ain't Groceries (stereo)
TTITLE2=I Can't Quit You Baby (stereo)
TTITLE3=I'll Always Love You (stereo)
TTITLE4=Twenty-Three Hours (stereo)
TTITLE5=Spring (stereo)
TTITLE6=Steal Away (stereo)
TTITLE7=You're The One (stereo)
TTITLE8=So Blue (Without You) (stereo)
TTITLE9=Did You Ever Loved A Woman (stereo)
EXTD=
EXTT0=
EXTT1=
EXTT2=
EXTT3=
EXTT4=
EXTT5=
EXTT6=
EXTT7=
EXTT8=
EXTT9=
PLAYORDER=
